<?xml version="1.0" standalone="no"?><!DOCTYPE svg PUBLIC "-//W3C//DTD SVG 1.1//EN" "http://www.w3.org/Graphics/SVG/1.1/DTD/svg11.dtd"><svg class="icon" width="256px" height="107.48px" viewBox="0 0 2439 1024" version="1.1" xmlns="http://www.w3.org/2000/svg"><path d="M1535.03849 313.779758A313.976981 313.976981 0 1 1 1231.120268 0.162018a310.743809 310.743809 0 0 1 303.918222 313.61774z" fill="#2c2c2c" /><path d="M2373.14867 173.675613c0 71.848279-100.946833 84.421728-161.299387 95.558211s-191.475665 15.088139-247.876564 28.020829A473.839403 473.839403 0 0 0 1760.282846 421.552177a689.743483 689.743483 0 0 1-204.408355 131.482351c-10.777242 4.310897-43.82745 7.544069-54.963933 11.136484a528.444095 528.444095 0 0 0 62.508003-96.995178c38.43883-86.577177 32.690967-167.406491 22.272966-271.227255 0-16.525104 2.873931-22.991449 11.854967-28.38007a874.393561 874.393561 0 0 1 202.252906-83.703246 420.312435 420.312435 0 0 1 190.757182-14.010414 736.804106 736.804106 0 0 1 149.444421 41.672002 351.697328 351.697328 0 0 0 129.686145 35.92414c62.867245 1.796207 94.480487-3.592414 103.461522 26.224622zM66.100417 173.675613c0 71.848279 100.946833 84.421728 160.940146 95.558211s191.475665 15.088139 247.876564 28.020829a469.887748 469.887748 0 0 1 205.486079 124.297524 689.743483 689.743483 0 0 0 204.408355 131.482351c11.136483 4.310897 44.186692 7.544069 55.323176 11.136484a510.841267 510.841267 0 0 1-64.304211-96.995178c-38.43883-86.577177-32.690967-167.406491-22.632208-271.227255 1.796207-16.525104-2.873931-22.991449-11.495724-28.38007a881.219147 881.219147 0 0 0-202.252907-83.703246 421.7494 421.7494 0 0 0-191.116423-14.010414A749.736796 749.736796 0 0 0 298.888843 111.526851a350.260362 350.260362 0 0 1-129.686145 35.92414C107.772419 149.247198 75.081452 143.858577 66.100417 173.675613zM2439.249087 917.305305l-58.915589-84.78097c-31.613243 20.117518-60.711796 38.798071-90.528832 57.119382a159.50318 159.50318 0 0 1-181.776147-2.155448c-58.915589-38.798071-114.957247-82.26628-174.232078-120.705109a368.581674 368.581674 0 0 0-417.797745-7.184828 989.350808 989.350808 0 0 0-110.64635 77.955383c-120.345868 96.635936-239.254771 99.509867-363.552294 7.544069a1053.295777 1053.295777 0 0 0-182.853871-116.034971c-131.482351-59.274831-254.702151-24.787656-368.222432 53.526968-39.875795 27.661588-77.2369 58.197106-116.753454 86.217935a215.544838 215.544838 0 0 1-261.168496 3.592414C50.293796 833.242818 49.934554 833.602059 6.825587 894.673097c-2.51469 3.951655-4.670138 8.262552-6.825587 12.214208 54.963934 76.159176 221.651942 155.910766 350.978845 89.451107a915.34708 915.34708 0 0 0 130.404627-80.470073c82.625521-59.993313 163.095594-122.142075 275.178911-107.772419a408.81671 408.81671 0 0 1 203.689872 102.383798c176.387526 143.696559 334.094499 145.492766 514.074439 2.155449 81.907039-65.381934 168.484215-119.627385 280.926773-104.898488a445.100091 445.100091 0 0 1 201.534424 98.072901c39.157312 28.38007 77.955383 56.760141 119.268144 81.188556a234.584632 234.584632 0 0 0 251.468978 0c36.283381-21.195242 70.770555-44.186692 111.724074-69.692831z" fill="#2c2c2c" /></svg>