<?xml version="1.0" standalone="no"?><!DOCTYPE svg PUBLIC "-//W3C//DTD SVG 1.1//EN" "http://www.w3.org/Graphics/SVG/1.1/DTD/svg11.dtd"><svg class="icon" width="256px" height="119.65px" viewBox="0 0 2191 1024" version="1.1" xmlns="http://www.w3.org/2000/svg"><path d="M792.368307 843.799071c47.387364-131.20175 57.058255-257.890417-16.440514-383.289633 59.637159-17.729966 43.519008-60.281885 32.236302-101.544352s-18.697055-80.268392-28.367946-122.497948c-139.905551-8.059076-277.232199-15.151062-414.236482-24.821953-67.051509-4.513082-100.2549-47.709727-96.708907-117.662503A92.84055 92.84055 0 0 1 376.197646 1.142132q245.640623 11.282706 490.636519 26.756131a91.551098 91.551098 0 0 1 82.524934 82.202571c26.756131 119.274318 53.512262 238.548636 77.689488 358.145317a54.801714 54.801714 0 0 0 41.907193 48.676816q345.895522 116.373051 690.823955 234.68028c11.927432 3.868356 23.854864 8.381439 41.58483 14.828699a406.822133 406.822133 0 0 1-177.299662 116.050687 207.601786 207.601786 0 0 1-197.286169-24.177226c-84.459112-53.834625-166.339319-114.11651-268.206034-136.359558a257.890417 257.890417 0 0 0-196.31908 22.243048c-55.124077 30.624487-110.248153 62.860789-169.885313 99.610174z" fill="#2c2c2c" /><path d="M2188.844917 827.358557L2135.977382 903.758593c-28.367946-18.052329-54.479351-35.137569-81.235482-51.255721a142.162093 142.162093 0 0 0-163.115689 1.934179c-52.867536 34.815206-103.156167 73.821132-156.346065 108.313975A330.74446 330.74446 0 0 1 1360.371952 968.231197a847.492384 847.492384 0 0 1-99.287811-69.952775c-107.991612-87.682742-214.693772-88.972194-327.52083-6.447261a964.832524 964.832524 0 0 1-164.082778 104.123256c-117.984866 53.189899-228.555382 21.920685-330.422097-48.354453-35.782295-24.49959-69.30805-52.22281-104.767983-77.044762a193.417813 193.417813 0 0 0-234.357916-3.545994C45.130823 903.758593 44.80846 903.758593 6.124897 847.345064a114.11651 114.11651 0 0 1-6.124897-10.63798c49.321542-68.340961 198.897984-139.905551 314.948672-80.268392a849.426562 849.426562 0 0 1 117.017777 71.886954c74.143495 54.156988 146.352812 109.603427 246.930075 96.708906a366.849119 366.849119 0 0 0 182.779833-91.873461c158.280244-128.945209 299.79761-130.879387 461.301484-1.934178 73.498769 58.67007 151.188257 107.346886 252.087883 93.807639a395.539428 395.539428 0 0 0 180.845655-87.682742c35.137569-25.466679 69.952776-50.933357 107.024523-72.854042a210.503053 210.503053 0 0 1 225.654116 0c32.558665 19.341781 63.505515 39.973015 100.254899 62.860789z" fill="#2c2c2c" /><path d="M305.277782 631.039477a234.68028 234.68028 0 0 1 218.562128-231.779013 234.68028 234.68028 0 0 1 251.76552 184.391648 230.811924 230.811924 0 0 1-170.530038 271.752028 53.189899 53.189899 0 0 1-35.459933-1.611815c-74.465858-43.841371-147.964627-88.972194-221.785759-134.103017a90.584009 90.584009 0 0 1-42.551918-88.649831z" fill="#2c2c2c" /></svg>